<svg xmlns="http://www.w3.org/2000/svg" viewBox="0 0 120.07 26.63"><defs><style>.cls-1{fill:#fff;}</style></defs><title>logo-bianco</title><g id="Livello_2" data-name="Livello 2"><g id="Livello_1-2" data-name="Livello 1"><g id="Livello_2-2" data-name="Livello 2"><g id="Capa_1" data-name="Capa 1"><path class="cls-1" d="M53.16,4.77h2.41c1.2,0,1.2,0,1.2,1.21,0,3.34,0,6.69,0,10a19.61,19.61,0,0,0,.37,4.64A4.1,4.1,0,0,0,61,24c.49.06,1,.08,1.39.12l-.52,2.44a8.66,8.66,0,0,1-5.78-1.49,6.74,6.74,0,0,1-2.66-4.4,13.85,13.85,0,0,1-.25-2.5c0-4.37,0-8.74,0-13.11C53.16,5,53.16,4.84,53.16,4.77Z"/><path class="cls-1" d="M26.21,22.34H24.12c0-.12,0-.27,0-.43,0-3.59,0-7.17,0-10.76a20.39,20.39,0,0,1,.22-2.74A4.61,4.61,0,0,1,28.1,4.77a3.93,3.93,0,0,1,4,1.6,3.62,3.62,0,0,1-1.94,5.88A2.68,2.68,0,0,1,26.86,9a3.32,3.32,0,0,1,1.22-1.69.43.43,0,0,1,.4.07c.34.32.64.68,1,1a.29.29,0,0,1,0,.5A1.78,1.78,0,0,0,29,9.3a.83.83,0,0,0-.1.58.64.64,0,0,0,.45.32,1.4,1.4,0,0,0,1.45-1.67,2,2,0,0,0-1.35-1.6,2.24,2.24,0,0,0-2.27.5,3.06,3.06,0,0,0-1,2.59c0,4,0,7.92,0,11.88C26.21,22.05,26.21,22.21,26.21,22.34Z"/><path class="cls-1" d="M111.36,26.6a10.57,10.57,0,0,1-4.48-.62c-1-.36-1.85-.87-2.77-1.33a.33.33,0,0,1-.14-.25c0-.93.05-1.86.07-2.79,0-.51,0-1,0-1.52,0-.25.1-.37.36-.37h2c.25,0,.33.12.39.35a18.06,18.06,0,0,0,.58,2.2,3.29,3.29,0,0,0,2.47,2.12,7.83,7.83,0,0,0,3.29.12,4,4,0,0,0,3.62-4.22c0-.69-.11-1.38-.15-2.07a.62.62,0,0,1,.17-.47c.85-.61,1.73-1.2,2.6-1.8.2-.14.32-.09.38.14a5.18,5.18,0,0,1,.24,1c.12,2.05.23,4.1-.91,6a7.12,7.12,0,0,1-4.17,3.15A9.71,9.71,0,0,1,111.36,26.6Z"/><path class="cls-1" d="M114.17,11.42,112.3,15c-1.91-.64-4-1.09-5.66-2.49a5.87,5.87,0,0,1-2-3.44,7.85,7.85,0,0,1,.51-4.92,6.8,6.8,0,0,1,5.51-4c.51-.08,1-.06,1.55-.09.33,0,.39.13.3.42s-.23.77-.31,1.16-.22.4-.54.45a8.37,8.37,0,0,0-1.85.44,3.34,3.34,0,0,0-2,2.48,5.6,5.6,0,0,0-.06,2.38A3.34,3.34,0,0,0,110,9.94c1.16.48,2.36.84,3.54,1.26Z"/><path class="cls-1" d="M88.38,11.71A5.84,5.84,0,0,1,87.13,9,7.71,7.71,0,0,1,88.44,2.8,6.72,6.72,0,0,1,93.16.15a12.86,12.86,0,0,1,6.16.5,19,19,0,0,1,2.3,1.19.39.39,0,0,1,.14.3c0,1.16,0,2.32,0,3.48,0,.5,0,.52-.52.53s-1.09,0-1.64,0c-.33,0-.47-.11-.54-.43a5.22,5.22,0,0,0-1-2.37A3.64,3.64,0,0,0,95.8,2.16a6.62,6.62,0,0,0-2.54,0,3.74,3.74,0,0,0-3,3.69,4.93,4.93,0,0,0,.3,2.24c.11.24.28.45.39.69a.41.41,0,0,1,0,.36C90.08,10,89.25,10.84,88.38,11.71Z"/><path class="cls-1" d="M39.73,14.52,36,13.2c0-.08,0-.23,0-.39q0-4.16,0-8.31c0-.19,0-.37,0-.56a1.66,1.66,0,0,0-1.69-1.8c-1-.12-1-.12-1-1.17,0-.49,0-.51.53-.51h8.31c.5,0,.52,0,.53.52,0,1,0,1-1,1.15-1.47.2-2,.65-2,2.35,0,3.2,0,6.4,0,9.59C39.73,14.24,39.73,14.41,39.73,14.52Z"/><path class="cls-1" d="M67.64,4.73h2.65V5.1c0,4.44,0,8.87,0,13.31a9.63,9.63,0,0,1-1.32,5.12,6.38,6.38,0,0,1-3.29,2.6c-.24.09-.35,0-.41-.22-.15-.59-.3-1.19-.47-1.78A.32.32,0,0,1,65,23.7a4.17,4.17,0,0,0,2.47-3.81,32.75,32.75,0,0,0,.17-3.35c0-3.76,0-7.51,0-11.27Z"/><path class="cls-1" d="M8.69,15.46H6.61c0-.12,0-.28,0-.44,0-1.56,0-3.12,0-4.68a11.31,11.31,0,0,0-.09-1.39c-.2-1.49-2.2-2.87-3.71-1.74a1.8,1.8,0,0,0-.62,2.3,1.22,1.22,0,0,0,1.21.69.67.67,0,0,0,.49-.3c.06-.17-.06-.41-.1-.61l0,0c-.6-.66-.6-.66,0-1.29a7.62,7.62,0,0,1,.63-.61c.08-.06.31-.08.36,0A6,6,0,0,1,5.85,8.69a2.63,2.63,0,0,1-2.42,3.6A3.23,3.23,0,0,1,.13,9.9C-.42,7.43.75,5.22,3.37,4.77a4.5,4.5,0,0,1,5.15,4c.12,1.11.14,2.23.17,3.35S8.69,14.35,8.69,15.46Z"/><path class="cls-1" d="M79.16,26.29c-1.36,0-2.72,0-4.08,0-.36,0-.49-.13-.49-.49,0-1.07,0-1.07,1-1.22,1.31-.19,1.77-.75,1.78-2.23s0-2.77,0-4.16c0-.54,0-.56.57-.56h2.6c.49,0,.51,0,.52.53q0,2.12,0,4.24c0,.13,0,.27,0,.4a1.73,1.73,0,0,0,1.85,1.79h.32c.48,0,.55.08.55.57,0,1.29.16,1.1-1.09,1.11Z"/><path class="cls-1" d="M102.16,21.82H99.72c-.64,0-.64,0-.52-.61a7.14,7.14,0,0,0,0-2.74,3.64,3.64,0,0,0-2.35-2.72c-.56-.25-1.14-.45-1.72-.65-.29-.1-.34-.21-.19-.49q.74-1.37,1.43-2.77a.49.49,0,0,1,.73-.29,9.54,9.54,0,0,1,3.7,2.16,6.55,6.55,0,0,1,1.85,3.94,9.51,9.51,0,0,1-.39,4A1.64,1.64,0,0,1,102.16,21.82Z"/><path class="cls-1" d="M100.59,24.43a16.42,16.42,0,0,1-1.37,1,8.81,8.81,0,0,1-4.5,1.2,19.47,19.47,0,0,1-4-.24,13.2,13.2,0,0,1-4.11-1.71.39.39,0,0,1-.16-.28c0-1.28,0-2.55.06-3.83,0-.88-.06-.83.82-.83.48,0,1,0,1.44,0s.48.14.55.47A13.79,13.79,0,0,0,90,22.53a3.38,3.38,0,0,0,2.82,2,7.07,7.07,0,0,0,3.05,0,6.22,6.22,0,0,0,1.76-.8,1.12,1.12,0,0,1,1.43-.07C99.51,23.88,100,24.11,100.59,24.43Z"/><path class="cls-1" d="M36,18.49l3.68-.61c0,.58,0,1.22,0,1.86,0,1.31,0,2.61,0,3.92,0,.37.12.5.49.49.64,0,1.27,0,1.83,0l-.62,2.15H33.89c-.55,0-.56,0-.56-.56,0-1,0-1,1-1.14a1.74,1.74,0,0,0,1.72-2c0-1.24,0-2.48,0-3.72C36,18.74,36,18.6,36,18.49Z"/><path class="cls-1" d="M16.33,5.33H9.09c-.54,0-.56,0-.56-.56,0-.37,0-.75,0-1.12s.12-.42.41-.4H23.57c.64,0,.64,0,.64.64,0,.32,0,.64,0,1s-.13.49-.49.48c-1.83,0-3.65,0-5.48,0Z"/><path class="cls-1" d="M19.17,18.09q0,3.62,0,7.23c0,.55,0,.57-.55.57-.35,0-.69,0-1,0s-.5-.15-.5-.52c0-2.77,0-5.54,0-8.31q0-3.16,0-6.31c0-.53,0-.55.53-.55h1c.48,0,.51,0,.51.53q0,3.32,0,6.63Q19.17,17.73,19.17,18.09Z"/><path class="cls-1" d="M81.09,4.66H77.44c0-.3-.06-.64-.11-1a1.56,1.56,0,0,0-1.51-1.53A6.87,6.87,0,0,0,75,2.06c-.27,0-.38-.13-.38-.39s0-.53,0-.8.12-.43.43-.42c.67,0,1.33,0,2,0h6.24c.52,0,.54,0,.54.54,0,1,0,1-.94,1.14-1.3.16-1.77.69-1.79,2C81.09,4.31,81.09,4.5,81.09,4.66Z"/><path class="cls-1" d="M18.24,2.05v-2l.34,0H29.45c.59,0,.6,0,.6.61,0,.33,0,.67,0,1s-.12.4-.41.4H18.24Z"/><path class="cls-1" d="M47.1,26.29H44.79c-.31,0-.45-.11-.42-.42q0-.72.08-1.43c0-.25.16-.3.37-.31a6.47,6.47,0,0,0,.87-.09,2.69,2.69,0,0,0,2.08-1.79,20.26,20.26,0,0,0,.64-2.1c.08-.3.2-.44.51-.42s.75,0,1.12,0c.21,0,.31.08.29.31-.16,1.87-.3,3.73-.46,5.6-.06.65-.07.65-.73.65Z"/><path class="cls-1" d="M12.37,17.17c-.62,0-1.2,0-1.78,0-.31,0-.39-.09-.39-.39,0-3.1,0-6.2,0-9.31,0-.66.07-.72.74-.72h1c.27,0,.39.12.38.39,0,.11,0,.21,0,.32q0,4.65,0,9.31Z"/><path class="cls-1" d="M55.14.45c1.37,0,2.74,0,4.11,0,.36,0,.52.12.49.49s.08.74-.08,1-.57.14-.87.22a4,4,0,0,0-1.1.32,2.18,2.18,0,0,0-.68.79c-.13.22-.23.36-.5.36-1,0-2,0-3,0-.14,0-.38-.11-.41-.21-.27-1-1.09-1.18-1.95-1.28-.58-.07-.58-.05-.58-.63,0-1.11-.12-1,1-1Z"/><path class="cls-1" d="M6.64,2.05v-2l.3,0h9.19c.55,0,.56,0,.56.56,0,.33,0,.67,0,1s-.12.46-.45.44-.51,0-.76,0H6.64Z"/><path class="cls-1" d="M68.77.45c1.17,0,2.35,0,3.52,0,.36,0,.52.12.49.49s.08.74-.08,1-.57.18-.87.23a1.59,1.59,0,0,0-1.44,1.19.45.45,0,0,1-.34.24c-.72,0-1.44,0-2.16,0a.59.59,0,0,1-.42-.32,1.48,1.48,0,0,0-1.12-1,7,7,0,0,0-1.22-.19c-.33,0-.44-.14-.44-.46C64.7.25,64.51.46,65.81.45,66.79.44,67.78.45,68.77.45Z"/><path class="cls-1" d="M113.73,2.2l1.48-.88a4.81,4.81,0,0,0,.65-.38,1.17,1.17,0,0,1,1.47-.08c.55.32,1.12.62,1.66.95a.48.48,0,0,1,.22.33c0,1.06,0,2.13,0,3.19,0,.88.05.81-.83.82-.43,0-.85,0-1.28,0s-.46-.13-.55-.44a12.21,12.21,0,0,0-.66-1.88A3,3,0,0,0,114,2.33Z"/><path class="cls-1" d="M6.61,21.5c0-1.3,0-2.61,0-3.91,0-.38.13-.53.51-.5s.8,0,1.2,0,.38.12.38.38q0,4,0,8c0,.29-.12.41-.41.4s-.83,0-1.24,0-.45-.12-.45-.45C6.61,24.14,6.61,22.82,6.61,21.5Z"/><path class="cls-1" d="M22.61,20.58H20.54c0-.08,0-.21,0-.33q0-3.87,0-7.75c0-.56,0-.6.58-.6.33,0,.67,0,1,0s.51.15.51.52c0,1.68,0,3.36,0,5C22.61,18.49,22.61,19.54,22.61,20.58Z"/><path class="cls-1" d="M77.41,8.81h3.68c0,.11,0,.26,0,.42q0,1.88,0,3.75c0,.49,0,.52-.53.52H77.84c-.23,0-.44,0-.44-.33C77.41,11.71,77.41,10.25,77.41,8.81Z"/><path class="cls-1" d="M12.37,22.37c0,1,0,2,0,3,0,.36-.12.51-.49.49s-.83,0-1.24,0c-.25,0-.37-.11-.37-.36,0-.69,0-1.38,0-2.07,0-.92,0-1.83,0-2.75,0-.56,0-1.12.07-1.67a.42.42,0,0,1,.31-.27c.48,0,1,0,1.44,0,.31,0,.32.22.32.44Q12.37,20.79,12.37,22.37Z"/><path class="cls-1" d="M15.73,13.78H13.67a2.37,2.37,0,0,1,0-.25q0-3.11,0-6.23c0-.49,0-.52.52-.52h1.2c.22,0,.36.08.36.32C15.73,9.33,15.73,11.56,15.73,13.78Z"/><path class="cls-1" d="M15.73,20.58H13.65c0-1,0-2,0-3,0-.6,0-1.2,0-1.8,0-.32.1-.47.44-.45s.85,0,1.28,0c.24,0,.37.09.37.35C15.73,17.32,15.73,19,15.73,20.58Z"/><path class="cls-1" d="M94.2,10.66l-1.81,3.58c-.7-.33-1.45-.68-2.19-1a.34.34,0,0,1,0-.32q.95-1.38,1.93-2.74a.45.45,0,0,1,.38-.16C93.05,10.18,93.61,10.42,94.2,10.66Z"/><path class="cls-1" d="M118.46,13.83c-.92,1-1.72,1.8-2.55,2.63a.42.42,0,0,1-.39,0c-.35-.19-.67-.43-1-.64-.18-.11-.19-.22-.09-.39.62-.95,1.23-1.9,1.86-2.84a.41.41,0,0,1,.38-.11C117.27,12.92,117.84,13.37,118.46,13.83Z"/><path class="cls-1" d="M15.73,24.05c0,.49,0,1,0,1.48,0,.25-.11.37-.36.36H14c-.25,0-.36-.11-.36-.36q0-1.48,0-3c0-.25.11-.37.36-.36h1.36c.25,0,.36.11.36.36C15.72,23.07,15.73,23.56,15.73,24.05Z"/><path class="cls-1" d="M22.61,24.07c0,.48,0,1,0,1.44,0,.27-.11.39-.38.39H20.87a.3.3,0,0,1-.34-.34q0-1.5,0-3c0-.23.1-.35.34-.34h1.4c.26,0,.35.14.34.38C22.6,23.08,22.61,23.58,22.61,24.07Z"/><path class="cls-1" d="M22.6,10.34H20.52c0-.12,0-.29,0-.45,0-.88,0-1.76,0-2.63,0-.37.14-.5.49-.48s.82,0,1.24,0c.22,0,.36.08.36.32C22.6,8.18,22.6,9.27,22.6,10.34Z"/><path class="cls-1" d="M25.17,25.9c-1.19,0-1,.15-1-1s-.12-1,1-1c1.27,0,1.1-.17,1.11,1.08,0,1,.09.92-.91.92Z"/><path class="cls-1" d="M17.09,8.66c0-.5,0-1,0-1.54,0-.23.1-.34.34-.34h1.39c.26,0,.35.13.35.37,0,.5,0,1,0,1.51Z"/><path class="cls-1" d="M4.09.05c1.12,0,1-.13,1,1s.11,1-1,1-1,.13-1-1S3,.06,4.09.05Z"/></g></g></g></g></svg>